# xmcd
#
# Track frame offsets:
#	150
#	15257
#	31290
#	51748
#	64942
#	81447
#	94023
#	110686
#	130793
#	144696
#	164453
#	174928
#	235550
#	256670
#	299944
#	316132
#
# Disc length: 4340 seconds
# Revision: 0
# Processed by: cddbd v1.5.2PL0 Copyright (c) Steve Scherf et al.
# Submitted via: dBpowerAMP V12.0
#
DISCID=e010f210
DTITLE=Martin C. Herberg (1960s - 2016 Martin Carl Herberg 1953 -) - Missing pieces (2012-2016) 2CDs - CD2
DYEAR=2016
DGENRE=Germany English Wuppertal Liedermacher Folk Songwriter Blues Instrumental AccousticGuitar Accordion Cello Percussion Synthesizer
TTITLE0=M y irish brook (gaelic bourree rearranged 2012-2016 Original 2005)
TTITLE1=Peace of mind (2013-2016 Original 2002)
TTITLE2=A fairytale from the north (2015 Original Tanzende Prinzessin 1980s)
TTITLE3=Annemarie was her name (live 1999 solo Original 1980s)
TTITLE4=Once upon a time (live 1999)
TTITLE5=After all (1981 4 Guitars in Playbackverfahren)
TTITLE6=Time (1981)
TTITLE7=Quite folky session (1 rehearsal session 1991 feat. Urs Fuchs, Thomas Kagermann)
TTITLE8=Quite folky session (2 rehearsal session 1991 feat. Urs Fuchs, Thomas Kagermann)
TTITLE9=Something is driving me (the radio song 2016 Original 2012)
TTITLE10=A night in Los Angeles (1982 Original 1977 in Los Angeles)
TTITLE11=Leaving L.A. (1981 Solo)
TTITLE12=Dreams and nightmares of a skydiver (1991 Electric guitar solo using Fuzz, Wah and Korg SDD 3000 Delay)
TTITLE13=M and M in electric ladyland (live 1999 remastered 2016)
TTITLE14=Paint it black (feat. The 20th century People2010 Original 1979 Cover The rolling stones 1966) 
TTITLE15=Good night, sleep tight (live 1999 solo)
EXTD=
EXTT0=
EXTT1=
EXTT2=
EXTT3=
EXTT4=
EXTT5=
EXTT6=
EXTT7=
EXTT8=
EXTT9=
EXTT10=
EXTT11=
EXTT12=
EXTT13=
EXTT14=
EXTT15=
PLAYORDER=
